<svg id="svg3403" xmlns="http://www.w3.org/2000/svg" viewBox="0 0 1200 600"><style>.st1{display:none}.st3{display:inline}.st4{fill:#cf142b}.st5{fill:#fff}</style><g id="g3504" transform="matrix(.99923 0 0 .99796 -41.705 34.674)" class="st1"><path id="path3410" d="M41.9-34.6l-.1 68 466 233.1-465.9 233-.2 66.8 134.2.2 466-232.8 466.8 232.8 133.9.1v-66.4L776.1 266.5l466.5-233.2.1-68.1h-133.4L641.9 199.5 173.7-34.6H41.9z" fill="#fff"/><g id="g3475" transform="matrix(1.00047 0 0 1.00255 -90.083 -1.017)" class="st3"><path id="path3473" class="st4" d="M731.4 266.9l89.5-.3 511.2 256-.8 43.1-599.9-298.8zm510.1-300.5l86.7.1-596.8 300.6V222l510.1-255.6zm-855 171.3L131.8 10.1v-43.7l599.7 300.5-88.4.1-256.6-129.3zm344.9 129.2v43.7L221.3 566l-89.2.1 599.3-299.2z"/></g></g><g id="g3457" transform="matrix(.99923 0 0 .99796 -71.705 6.7)" class="st1"><g id="g3500" class="st3"><path id="path3414" class="st5" d="M572.1-6.7v200.4H71.8v200.4h500.4v200.4h200.2V394.1h500.4V193.7H772.3V-6.7H572.1z"/><path id="path3416" class="st4" d="M612.2-6.7v240.5H71.8V354h540.4v240.5h120.1V354h540.4V233.8H732.3V-6.7H612.2z"/></g></g><path id="black_stripe" class="st1" d="M0 0h1200v600H0z"/><path fill="#21468b" d="M0 0h1200v600H0z"/><path class="st5" d="M0 0h1200v400H0z"/><path fill="#ae1c28" d="M0 0h1200v200H0z"/></svg>